<?xml version="1.0" encoding="utf-8"?>
<!-- Generator: Adobe Illustrator 27.3.1, SVG Export Plug-In . SVG Version: 6.00 Build 0)  -->
<svg version="1.1" id="Layer_1" xmlns="http://www.w3.org/2000/svg" xmlns:xlink="http://www.w3.org/1999/xlink" x="0px" y="0px"
	 viewBox="0 0 16 16" style="enable-background:new 0 0 16 16;" xml:space="preserve">
<style type="text/css">
	.st0{fill:#3787FF;}
</style>
<g>
	<path class="st0" d="M1.44,14.87c0.05-0.21,0.17-0.28,0.27-0.37c1.88-1.79,3.77-3.57,5.65-5.35C7.73,8.8,7.72,8.79,7.24,8.59
		C6.48,8.27,5.72,7.94,4.97,7.61C4.88,7.57,4.76,7.55,4.74,7.43C4.73,7.29,4.86,7.26,4.95,7.2c1.82-1.16,3.63-2.32,5.45-3.48
		c1.27-0.81,2.53-1.62,3.8-2.43c0.05-0.03,0.1-0.07,0.2-0.03c-0.41,0.53-0.93,0.93-1.39,1.4c-0.49,0.5-1.04,0.95-1.55,1.43
		c-0.97,0.91-1.93,1.82-2.9,2.74C8.28,7.1,8.28,7.14,8.66,7.31C9.44,7.65,10.22,7.99,11,8.33c0.1,0.04,0.24,0.05,0.24,0.2
		c0,0.11-0.12,0.15-0.2,0.2c-3.05,1.96-6.09,3.92-9.14,5.88C1.76,14.7,1.62,14.77,1.44,14.87z"/>
	<path class="st0" d="M2.9,11.67c-0.76-0.83-1.24-1.81-1.39-2.93C1,4.98,3.53,1.78,7.33,1.39C7.56,1.37,7.7,1.27,7.83,1.1
		c0.39-0.53,0.96-0.58,1.56-0.55c0.08,0,0.17,0.04,0.17,0.12c0,0.38,0.26,0.36,0.52,0.37c0.22,0.01,0.58-0.1,0.59,0.21
		c0.01,0.38-0.38,0.22-0.6,0.23c-0.46,0.03-0.5,0.06-0.49,0.49c0.01,0.24,0.1,0.35,0.34,0.34c0.19,0,0.38,0,0.56,0.02
		c0.12,0.01,0.22,0.07,0.21,0.22c0,0.14-0.11,0.19-0.23,0.2c-0.12,0.01-0.25,0.01-0.38,0.01c-0.26,0-0.52-0.03-0.53,0.35
		c0,0.1-0.09,0.15-0.19,0.15C8.76,3.3,8.17,3.23,7.81,2.66C7.67,2.45,7.52,2.4,7.28,2.43C5.67,2.58,4.32,3.2,3.22,4.41
		C1.71,6.08,1.36,9,2.49,10.96C2.63,11.2,2.76,11.44,2.9,11.67z"/>
	<path class="st0" d="M13.12,4.29c0.46,0.43,0.75,0.98,0.98,1.56c1.51,3.75-0.91,8.02-4.9,8.66c-0.19,0.03-0.37,0.07-0.56,0.07
		c-0.23,0-0.36,0.09-0.49,0.28c-0.3,0.45-1.04,0.69-1.55,0.55c-0.09-0.03-0.17-0.07-0.17-0.17c0-0.36-0.25-0.34-0.49-0.34
		c-0.14,0-0.28,0-0.41-0.01c-0.12-0.01-0.22-0.07-0.21-0.21c0.01-0.12,0.1-0.17,0.21-0.18c0.2-0.01,0.4-0.01,0.6-0.01
		c0.34,0,0.28-0.25,0.29-0.45c0.01-0.21,0.01-0.42-0.29-0.41c-0.2,0.01-0.4,0-0.6,0c-0.11,0-0.19-0.06-0.21-0.18
		c-0.02-0.14,0.08-0.21,0.2-0.22c0.15-0.01,0.3-0.02,0.45-0.01c0.24,0.01,0.46,0,0.47-0.33c0.01-0.14,0.12-0.18,0.24-0.19
		c0.58-0.04,1.11,0.05,1.47,0.56c0.15,0.21,0.32,0.27,0.57,0.27c2.88-0.09,5.4-2.64,5.44-5.52C14.18,6.58,13.93,5.72,13.12,4.29z"/>
</g>
</svg>
